# xmcd
#
# Track frame offsets: 
#        150
#        5126
#        18086
#        29973
#        42769
#        52182
#        66329
#        77251
#        95785
#        107843
#        119029
#        129217
#        142957
#        157038
#        173740
#        186878
#        195334
#        207562
#        221980
#        231598
#        246245
#
# Disc length: 3471 seconds
#
# Revision: 0
# Processed by: cddbd v1.5.2PL0 Copyright (c) Steve Scherf et al.
# Submitted via: ExactAudioCopy v0.95b3
#
DISCID=3d0d8d15
DTITLE=The Millennium  - Pieces (Sony Japan reissue 2007)
DYEAR=1900
DGENRE=
TTITLE0=Prelude
TTITLE1=To Claudia On Thursday
TTITLE2=Baby, It's Real
TTITLE3=It's You
TTITLE4=I Just Don't Know How To Say Goodbye
TTITLE5=Good People
TTITLE6=Can You See
TTITLE7=How Much I Love You
TTITLE8=The Blues Is Just A Good Woman Gone Bad
TTITLE9=Once Upon A Time
TTITLE10=Dying With You
TTITLE11=The Word
TTITLE12=Share With Me
TTITLE13=Sometime Or Another
TTITLE14=A Younger Me
TTITLE15=I Need To Be By Your Side
TTITLE16=Sunshine Girl
TTITLE17=Suspended Animation
TTITLE18=The Ways I Love You
TTITLE19=The Hills Of Vermont
TTITLE20=It Won't Always Be The Same
EXTD=
EXTT0=
EXTT1=
EXTT2=
EXTT3=
EXTT4=
EXTT5=
EXTT6=
EXTT7=
EXTT8=
EXTT9=
EXTT10=
EXTT11=
EXTT12=
EXTT13=
EXTT14=
EXTT15=
EXTT16=
EXTT17=
EXTT18=
EXTT19=
EXTT20=
PLAYORDER=
